# xmcd
#
# Track frame offsets:
#	150
#	18755
#	33912
#	51011
#	67378
#	79135
#	93467
#	107329
#	119580
#	137667
#	154051
#	183940
#	187854
#
# Disc length: 2505 seconds
#
# Revision: 0
# Processed by: cddbd v1.5.2PL0 Copyright (c) Steve Scherf et al.
# Submitted via: dBpowerAMP V4.0
#
DISCID=a309c70d
DTITLE=Merle Haggard - Chicago Wind
DYEAR=1900
DGENRE=Country
TTITLE0=01.Chicago Wind
TTITLE1=02.Where´s All The Fredoom
TTITLE2=03.White Man Singin´The Blues
TTITLE3=04.Leavin´s Not The Only Way To Go
TTITLE4=05.What I´ve Been Meaning To say
TTITLE5=06.Mexico
TTITLE6=07.Honky Tonk Man
TTITLE7=08.America First
TTITLE8=09.It Always Will Be
TTITLE9=10.I Still Can´t Say Goodbye
TTITLE10=11.Some Of Us Fly (with Toby Keith)
TTITLE11=DATA
TTITLE12=12.Untitled
EXTD=
EXTT0=
EXTT1=
EXTT2=
EXTT3=
EXTT4=
EXTT5=
EXTT6=
EXTT7=
EXTT8=
EXTT9=
EXTT10=
EXTT11=
EXTT12=
PLAYORDER=
